<svg version="1" xmlns="http://www.w3.org/2000/svg" width="682.667" height="682.667" viewBox="0 0 512.000000 512.000000"><path d="M143 107.4c-16.5 4.6-31.2 19.5-35.6 36-1.8 6.5-1.8 18.7 0 25.2 4.4 16.8 19.3 31.5 36.1 36 10.8 2.9 25.4 1.3 35.4-3.9l4.8-2.5 28.9 28.9 28.9 28.9-28.9 28.9-28.9 28.9-7.6-3.7c-7.4-3.5-7.9-3.6-19.1-3.6-13.1 0-19 1.5-27.7 7.1-8 5.1-14 11.9-18.6 21.3l-4.2 8.4v11.6c0 13.2 1.5 19.1 7.1 27.8 5.1 8 11.9 14 21.3 18.6l8.4 4.2h12.1c13.5 0 17.9-1.2 27.4-7.2 7.8-4.9 13.9-11.8 18.4-21 3.7-7.4 4.1-9.1 4.6-17.6.5-10.9-.7-17.6-4.8-25.8l-2.8-5.6 28.9-28.9 28.9-28.9 28.9 28.9 28.8 28.8-2.3 4.2c-4.9 8.8-6.8 24.6-4.3 35.6 2.8 12.3 13.5 26.3 24.5 32.2 9.9 5.4 25.1 7.3 36.4 4.7 12.3-2.8 26.3-13.5 32.2-24.5 5.4-9.9 7.3-25.1 4.7-36.4-1.8-8-7.1-17.2-13.4-23.5-10.1-10-21.1-14.5-35.5-14.5-9.3.1-14.8 1.3-22.1 4.9l-5.7 2.8-28.8-28.8-28.9-28.9 28.9-28.9 28.9-28.9 7.6 3.7c7.4 3.5 7.9 3.6 19.1 3.6 13.1 0 19-1.5 27.7-7.1 8-5.1 14-11.9 18.6-21.3l4.2-8.4v-11.6c0-13.2-1.5-19.1-7.1-27.8-5.1-8-11.9-14-21.3-18.6l-8.4-4.2h-11.6c-13.2 0-19.1 1.5-27.8 7.1-7.9 5.1-14 11.9-18.5 21.1-3.7 7.4-4.1 9.1-4.6 17.6-.5 10.9.7 17.6 4.8 25.8l2.8 5.6-28.9 28.9-28.9 28.9-28.9-28.9-28.9-28.9 3.6-7.4c3-6.4 3.6-8.7 4-16.7.3-5.8 0-11.4-.8-14.7-4.1-17.4-19.2-32.9-36.4-37.5-6.3-1.7-19.5-1.7-25.6 0zm20.4 20.1c11.4 3 19 11.1 21.7 23.2 2.5 11-3.6 24.7-13.4 30.3-8.1 4.6-14.3 5.6-22.2 3.7-12.1-3-19.8-11-22.6-23.4-1-4.3-.9-6.4.4-11.8 2.8-11.4 9.6-18.5 21-22 5.6-1.8 8.2-1.8 15.1 0zm200 0c15.9 4.2 25.2 19.8 21.2 35.6-4.2 16.2-19.7 25.5-35.7 21.5-16.2-4.2-25.5-19.7-21.4-35.7 2.8-11.3 10.9-19.1 22.2-21.8 5.6-1.3 7.3-1.3 13.7.4zm-200 200c15.9 4.2 25.2 19.8 21.2 35.6-4.2 16.2-19.7 25.5-35.7 21.5-16.2-4.2-25.5-19.7-21.4-35.7 2.8-11.3 10.9-19.1 22.2-21.8 5.6-1.3 7.3-1.3 13.7.4zm204.3 1.5c6.1 2.7 12.7 9.2 15.3 15.3 8.4 19.3-5.9 41-27 41-16.4 0-29.3-12.9-29.3-29.3 0-21.2 21.5-35.4 41-27z"/></svg>